<svg xmlns="http://www.w3.org/2000/svg" xmlns:xlink="http://www.w3.org/1999/xlink" width="750" zoomAndPan="magnify" viewBox="0 0 562.5 149.999998" height="200" preserveAspectRatio="xMidYMid meet" version="1.0"><defs><g/><clipPath id="74646baa51"><path d="M 0 6.464844 L 73.433594 6.464844 L 73.433594 106.875 L 0 106.875 Z M 0 6.464844 " clip-rule="nonzero"/></clipPath><clipPath id="0d220ad457"><path d="M 0 64 L 23 64 L 23 106.875 L 0 106.875 Z M 0 64 " clip-rule="nonzero"/></clipPath><clipPath id="bd341620c8"><path d="M 0 6.464844 L 73.433594 6.464844 L 73.433594 46 L 0 46 Z M 0 6.464844 " clip-rule="nonzero"/></clipPath></defs><g clip-path="url(#74646baa51)"><path fill="#82cdff" d="M 38.078125 6.464844 L 16.226562 6.464844 C 7.269531 6.464844 0.0078125 13.726562 0.0078125 22.683594 L 0.0078125 107.027344 L 6.773438 107.027344 C 15.730469 107.027344 22.992188 99.765625 22.992188 90.804688 L 22.992188 28.015625 L 38.078125 28.015625 C 45.117188 28.015625 50.289062 33.617188 50.289062 40.941406 C 50.289062 48.269531 45.117188 53.871094 38.078125 53.871094 L 29.472656 53.871094 L 29.472656 69.980469 C 29.472656 70.335938 29.507812 70.691406 29.578125 71.042969 C 29.648438 71.390625 29.75 71.730469 29.886719 72.0625 C 30.023438 72.390625 30.191406 72.707031 30.390625 73.003906 C 30.589844 73.300781 30.816406 73.574219 31.066406 73.828125 C 31.320312 74.078125 31.59375 74.304688 31.890625 74.503906 C 32.1875 74.703125 32.503906 74.871094 32.832031 75.007812 C 33.164062 75.144531 33.503906 75.246094 33.855469 75.316406 C 34.203125 75.386719 34.558594 75.421875 34.914062 75.421875 L 38.078125 75.421875 C 57.902344 75.421875 73.273438 60.050781 73.273438 40.941406 C 73.273438 21.835938 57.902344 6.464844 38.078125 6.464844 Z M 38.078125 6.464844 " fill-opacity="1" fill-rule="nonzero"/></g><g clip-path="url(#0d220ad457)"><path fill="#006095" d="M 6.773438 107.027344 C 15.730469 107.027344 22.992188 99.765625 22.992188 90.804688 L 22.992188 64.773438 C 22.992188 79.339844 12.796875 84.605469 0.0078125 84.605469 L 0.0078125 107.027344 Z M 6.773438 107.027344 " fill-opacity="1" fill-rule="nonzero"/></g><g clip-path="url(#bd341620c8)"><path fill="#c5e2ff" d="M 38.078125 6.464844 L 16.226562 6.464844 C 7.269531 6.464844 0.0078125 13.726562 0.0078125 22.683594 L 0.0078125 45.824219 C 1.789062 34.070312 13.324219 28.011719 22.992188 28.011719 L 38.078125 28.011719 C 63.183594 28.011719 73.273438 40.941406 73.273438 40.941406 C 73.273438 21.835938 57.902344 6.464844 38.078125 6.464844 Z M 38.078125 6.464844 " fill-opacity="1" fill-rule="nonzero"/></g><path fill="#006095" d="M 50.289062 40.941406 C 50.289062 48.269531 45.117188 53.871094 38.078125 53.871094 L 29.472656 53.871094 L 29.472656 69.980469 C 29.472656 70.335938 29.507812 70.691406 29.578125 71.042969 C 29.648438 71.390625 29.75 71.730469 29.886719 72.0625 C 30.023438 72.390625 30.191406 72.707031 30.390625 73.003906 C 30.589844 73.300781 30.816406 73.574219 31.066406 73.828125 C 31.320312 74.078125 31.59375 74.304688 31.890625 74.503906 C 32.1875 74.703125 32.503906 74.871094 32.832031 75.007812 C 33.164062 75.144531 33.503906 75.246094 33.855469 75.316406 C 34.203125 75.386719 34.558594 75.421875 34.914062 75.421875 C 48.429688 70.097656 50.289062 57.574219 50.289062 40.941406 Z M 50.289062 40.941406 " fill-opacity="1" fill-rule="nonzero"/><g fill="#c5e2ff" fill-opacity="1"><g transform="translate(73.292231, 109.765475)"><g><path d="M 51.796875 0.109375 C 49.703125 0.109375 47.941406 -0.601562 46.515625 -2.03125 C 45.046875 -3.445312 44.3125 -5.171875 44.3125 -7.203125 L 44.3125 -27.5625 C 44.3125 -29.207031 44.054688 -30.757812 43.546875 -32.21875 C 43.046875 -33.6875 42.328125 -34.960938 41.390625 -36.046875 C 39.441406 -38.335938 36.816406 -39.484375 33.515625 -39.484375 C 31.867188 -39.484375 30.203125 -39.203125 28.515625 -38.640625 C 26.828125 -38.078125 25.269531 -37.289062 23.84375 -36.28125 C 22.382812 -35.226562 21.210938 -34 20.328125 -32.59375 C 19.453125 -31.1875 19.015625 -29.710938 19.015625 -28.171875 L 19.015625 -7.421875 C 19.015625 -5.359375 18.300781 -3.613281 16.875 -2.1875 C 15.40625 -0.726562 13.644531 0 11.59375 0 C 10.570312 0 9.59375 -0.195312 8.65625 -0.59375 C 7.71875 -0.988281 6.914062 -1.519531 6.25 -2.1875 C 5.570312 -2.863281 5.035156 -3.660156 4.640625 -4.578125 C 4.242188 -5.503906 4.046875 -6.453125 4.046875 -7.421875 L 4.046875 -66.765625 C 4.046875 -68.898438 4.796875 -70.679688 6.296875 -72.109375 C 6.972656 -72.773438 7.769531 -73.304688 8.6875 -73.703125 C 9.601562 -74.097656 10.570312 -74.296875 11.59375 -74.296875 C 12.5625 -74.296875 13.503906 -74.097656 14.421875 -73.703125 C 15.335938 -73.304688 16.132812 -72.773438 16.8125 -72.109375 C 17.488281 -71.429688 18.023438 -70.625 18.421875 -69.6875 C 18.816406 -68.75 19.015625 -67.773438 19.015625 -66.765625 L 19.015625 -48.3125 C 21.148438 -50.1875 23.441406 -51.648438 25.890625 -52.703125 C 28.347656 -53.753906 30.890625 -54.28125 33.515625 -54.28125 C 37.078125 -54.28125 40.441406 -53.59375 43.609375 -52.21875 C 46.785156 -50.851562 49.550781 -48.929688 51.90625 -46.453125 C 54.238281 -44.015625 56.050781 -41.164062 57.34375 -37.90625 C 58.632812 -34.644531 59.28125 -31.195312 59.28125 -27.5625 L 59.28125 -7.203125 C 59.28125 -5.171875 58.550781 -3.445312 57.09375 -2.03125 C 55.550781 -0.601562 53.785156 0.109375 51.796875 0.109375 Z M 51.796875 0.109375 "/></g></g></g><g fill="#c5e2ff" fill-opacity="1"><g transform="translate(133.993816, 109.765475)"><g><path d="M 29.921875 0.625 C 26.210938 0.625 22.695312 -0.078125 19.375 -1.484375 C 16.0625 -2.890625 13.128906 -4.867188 10.578125 -7.421875 C 8.023438 -9.929688 6.035156 -12.851562 4.609375 -16.1875 C 3.179688 -19.53125 2.46875 -23.054688 2.46875 -26.765625 C 2.46875 -30.484375 3.179688 -34.019531 4.609375 -37.375 C 6.035156 -40.726562 8.023438 -43.679688 10.578125 -46.234375 C 13.128906 -48.785156 16.0625 -50.765625 19.375 -52.171875 C 22.695312 -53.578125 26.210938 -54.28125 29.921875 -54.28125 C 33.628906 -54.28125 37.160156 -53.566406 40.515625 -52.140625 C 43.878906 -50.710938 46.816406 -48.742188 49.328125 -46.234375 C 51.835938 -43.679688 53.804688 -40.726562 55.234375 -37.375 C 56.660156 -34.019531 57.375 -30.484375 57.375 -26.765625 C 57.375 -23.054688 56.671875 -19.539062 55.265625 -16.21875 C 53.859375 -12.90625 51.878906 -9.972656 49.328125 -7.421875 C 46.816406 -4.910156 43.878906 -2.941406 40.515625 -1.515625 C 37.160156 -0.0859375 33.628906 0.625 29.921875 0.625 Z M 29.921875 -14.40625 C 31.609375 -14.40625 33.21875 -14.722656 34.75 -15.359375 C 36.289062 -15.992188 37.625 -16.875 38.75 -18 C 39.914062 -19.15625 40.816406 -20.484375 41.453125 -21.984375 C 42.085938 -23.484375 42.40625 -25.078125 42.40625 -26.765625 C 42.40625 -28.453125 42.085938 -30.046875 41.453125 -31.546875 C 40.816406 -33.046875 39.914062 -34.378906 38.75 -35.546875 C 37.625 -36.671875 36.289062 -37.550781 34.75 -38.1875 C 33.21875 -38.820312 31.609375 -39.140625 29.921875 -39.140625 C 28.273438 -39.140625 26.691406 -38.820312 25.171875 -38.1875 C 23.648438 -37.550781 22.328125 -36.671875 21.203125 -35.546875 C 20.035156 -34.378906 19.125 -33.046875 18.46875 -31.546875 C 17.8125 -30.046875 17.484375 -28.453125 17.484375 -26.765625 C 17.484375 -25.078125 17.8125 -23.484375 18.46875 -21.984375 C 19.125 -20.484375 20.035156 -19.15625 21.203125 -18 C 22.328125 -16.875 23.648438 -15.992188 25.171875 -15.359375 C 26.691406 -14.722656 28.273438 -14.40625 29.921875 -14.40625 Z M 29.921875 -14.40625 "/></g></g></g><g fill="#c5e2ff" fill-opacity="1"><g transform="translate(189.68973, 109.765475)"><g><path d="M 10.96875 0 C 8.863281 0 7.0625 -0.710938 5.5625 -2.140625 C 4.03125 -3.566406 3.265625 -5.289062 3.265625 -7.3125 L 3.265625 -27.5625 C 3.265625 -31.15625 3.957031 -34.582031 5.34375 -37.84375 C 6.726562 -41.113281 8.660156 -43.984375 11.140625 -46.453125 C 13.609375 -48.929688 16.453125 -50.851562 19.671875 -52.21875 C 22.898438 -53.59375 26.316406 -54.28125 29.921875 -54.28125 C 33.554688 -54.28125 37.03125 -53.59375 40.34375 -52.21875 C 43.664062 -50.851562 46.601562 -48.929688 49.15625 -46.453125 C 51.707031 -43.984375 53.703125 -41.113281 55.140625 -37.84375 C 56.585938 -34.582031 57.3125 -31.15625 57.3125 -27.5625 L 57.3125 -7.3125 C 57.3125 -5.25 56.617188 -3.523438 55.234375 -2.140625 C 53.804688 -0.710938 52.0625 0 50 0 C 47.863281 0 46.082031 -0.710938 44.65625 -2.140625 C 43.15625 -3.523438 42.40625 -5.25 42.40625 -7.3125 L 42.40625 -27.5 C 42.332031 -30.757812 41.039062 -33.535156 38.53125 -35.828125 C 37.363281 -36.910156 36.03125 -37.753906 34.53125 -38.359375 C 33.03125 -38.960938 31.492188 -39.265625 29.921875 -39.265625 C 28.347656 -39.265625 26.847656 -38.972656 25.421875 -38.390625 C 23.992188 -37.804688 22.773438 -37.007812 21.765625 -36 C 20.710938 -34.945312 19.875 -33.71875 19.25 -32.3125 C 18.632812 -30.90625 18.3125 -29.414062 18.28125 -27.84375 L 18.28125 -7.3125 C 18.28125 -5.207031 17.566406 -3.484375 16.140625 -2.140625 C 14.710938 -0.710938 12.988281 0 10.96875 0 Z M 10.96875 0 "/></g></g></g><g fill="#c5e2ff" fill-opacity="1"><g transform="translate(247.860364, 109.765475)"><g><path d="M 30.140625 0.625 C 26.429688 0.625 22.890625 -0.0859375 19.515625 -1.515625 C 16.140625 -2.941406 13.175781 -4.910156 10.625 -7.421875 C 8.082031 -9.972656 6.085938 -12.90625 4.640625 -16.21875 C 3.191406 -19.539062 2.46875 -23.054688 2.46875 -26.765625 C 2.46875 -30.515625 3.191406 -34.066406 4.640625 -37.421875 C 6.085938 -40.785156 8.082031 -43.738281 10.625 -46.28125 C 13.175781 -48.800781 16.128906 -50.765625 19.484375 -52.171875 C 22.835938 -53.578125 26.390625 -54.28125 30.140625 -54.28125 C 33.816406 -54.28125 37.320312 -53.582031 40.65625 -52.1875 C 44 -50.800781 46.945312 -48.875 49.5 -46.40625 C 52.007812 -43.894531 53.992188 -40.976562 55.453125 -37.65625 C 56.921875 -34.332031 57.691406 -30.835938 57.765625 -27.171875 C 57.765625 -25.023438 57.078125 -23.304688 55.703125 -22.015625 C 54.335938 -20.722656 52.566406 -20.078125 50.390625 -20.078125 L 19.171875 -20.078125 C 20.410156 -18.128906 21.984375 -16.59375 23.890625 -15.46875 C 25.804688 -14.34375 27.890625 -13.78125 30.140625 -13.78125 C 31.535156 -13.78125 32.679688 -13.890625 33.578125 -14.109375 C 34.472656 -14.335938 35.296875 -14.675781 36.046875 -15.125 C 37.472656 -16.03125 38.921875 -16.484375 40.390625 -16.484375 C 42.410156 -16.484375 44.148438 -15.710938 45.609375 -14.171875 C 46.992188 -12.671875 47.6875 -10.875 47.6875 -8.78125 C 47.6875 -6.039062 46.242188 -3.84375 43.359375 -2.1875 C 40.066406 -0.3125 35.660156 0.625 30.140625 0.625 Z M 18.734375 -32.5625 L 42.40625 -32.5625 C 41.351562 -34.851562 39.769531 -36.660156 37.65625 -37.984375 C 35.539062 -39.316406 33.128906 -39.984375 30.421875 -39.984375 C 27.722656 -39.984375 25.359375 -39.304688 23.328125 -37.953125 C 21.304688 -36.609375 19.773438 -34.8125 18.734375 -32.5625 Z M 18.734375 -32.5625 "/></g></g></g><g fill="#c5e2ff" fill-opacity="1"><g transform="translate(303.949977, 109.765475)"><g/></g></g><g fill="#c5e2ff" fill-opacity="1"><g transform="translate(325.731061, 109.765475)"><g><path d="M 14.0625 0 C 11.957031 0 10.140625 -0.726562 8.609375 -2.1875 C 7.109375 -3.582031 6.359375 -5.382812 6.359375 -7.59375 L 6.359375 -51.234375 C 6.359375 -54.347656 6.945312 -57.320312 8.125 -60.15625 C 9.3125 -62.988281 10.972656 -65.472656 13.109375 -67.609375 C 15.242188 -69.742188 17.707031 -71.410156 20.5 -72.609375 C 23.289062 -73.804688 26.28125 -74.40625 29.46875 -74.40625 C 32.4375 -74.40625 35.238281 -73.867188 37.875 -72.796875 C 40.519531 -71.734375 42.894531 -70.226562 45 -68.28125 C 47.09375 -70.226562 49.453125 -71.734375 52.078125 -72.796875 C 54.703125 -73.867188 57.5 -74.40625 60.46875 -74.40625 C 63.65625 -74.40625 66.660156 -73.804688 69.484375 -72.609375 C 72.316406 -71.410156 74.800781 -69.742188 76.9375 -67.609375 C 79.070312 -65.472656 80.738281 -62.988281 81.9375 -60.15625 C 83.144531 -57.320312 83.75 -54.347656 83.75 -51.234375 L 83.75 -7.59375 C 83.75 -5.488281 83 -3.6875 81.5 -2.1875 C 80.78125 -1.519531 79.941406 -0.988281 78.984375 -0.59375 C 78.035156 -0.195312 77.054688 0 76.046875 0 C 74.953125 0 73.9375 -0.195312 73 -0.59375 C 72.0625 -0.988281 71.257812 -1.519531 70.59375 -2.1875 C 69.050781 -3.65625 68.28125 -5.457031 68.28125 -7.59375 L 68.28125 -50.671875 C 68.28125 -51.679688 68.0625 -52.664062 67.625 -53.625 C 67.195312 -54.582031 66.628906 -55.414062 65.921875 -56.125 C 64.421875 -57.625 62.5625 -58.375 60.34375 -58.375 C 58.207031 -58.375 56.425781 -57.644531 55 -56.1875 C 53.539062 -54.613281 52.789062 -52.8125 52.75 -50.78125 L 52.75 -7.703125 C 52.75 -5.566406 52 -3.75 50.5 -2.25 C 49 -0.75 47.179688 0 45.046875 0 C 42.910156 0 41.09375 -0.75 39.59375 -2.25 C 38.09375 -3.75 37.34375 -5.566406 37.34375 -7.703125 L 37.34375 -50.5625 C 37.34375 -51.644531 37.144531 -52.664062 36.75 -53.625 C 36.363281 -54.582031 35.832031 -55.414062 35.15625 -56.125 C 33.65625 -57.625 31.796875 -58.375 29.578125 -58.375 C 27.410156 -58.375 25.578125 -57.625 24.078125 -56.125 C 23.359375 -55.414062 22.789062 -54.582031 22.375 -53.625 C 21.96875 -52.664062 21.765625 -51.679688 21.765625 -50.671875 L 21.765625 -7.59375 C 21.765625 -5.382812 21.015625 -3.582031 19.515625 -2.1875 C 18.804688 -1.519531 17.972656 -0.988281 17.015625 -0.59375 C 16.054688 -0.195312 15.070312 0 14.0625 0 Z M 14.0625 0 "/></g></g></g><g fill="#c5e2ff" fill-opacity="1"><g transform="translate(411.685979, 109.765475)"><g><path d="M 29.921875 0.625 C 26.210938 0.625 22.695312 -0.078125 19.375 -1.484375 C 16.0625 -2.890625 13.128906 -4.867188 10.578125 -7.421875 C 8.023438 -9.929688 6.035156 -12.851562 4.609375 -16.1875 C 3.179688 -19.53125 2.46875 -23.054688 2.46875 -26.765625 C 2.46875 -30.484375 3.179688 -34.019531 4.609375 -37.375 C 6.035156 -40.726562 8.023438 -43.679688 10.578125 -46.234375 C 13.128906 -48.785156 16.0625 -50.765625 19.375 -52.171875 C 22.695312 -53.578125 26.210938 -54.28125 29.921875 -54.28125 C 33.597656 -54.28125 37.09375 -53.582031 40.40625 -52.1875 C 43.726562 -50.800781 46.644531 -48.851562 49.15625 -46.34375 C 51.664062 -43.875 53.640625 -40.988281 55.078125 -37.6875 C 56.523438 -34.382812 57.289062 -30.894531 57.375 -27.21875 L 57.375 -7.03125 C 57.375 -4.894531 56.640625 -3.09375 55.171875 -1.625 C 53.671875 -0.125 51.851562 0.625 49.71875 0.625 C 46.945312 0.625 44.847656 -0.554688 43.421875 -2.921875 C 39.222656 -0.554688 34.722656 0.625 29.921875 0.625 Z M 29.921875 -14.40625 C 31.609375 -14.40625 33.21875 -14.722656 34.75 -15.359375 C 36.289062 -15.992188 37.625 -16.875 38.75 -18 C 39.914062 -19.15625 40.816406 -20.484375 41.453125 -21.984375 C 42.085938 -23.484375 42.40625 -25.078125 42.40625 -26.765625 C 42.40625 -28.453125 42.085938 -30.046875 41.453125 -31.546875 C 40.816406 -33.046875 39.914062 -34.378906 38.75 -35.546875 C 37.625 -36.671875 36.289062 -37.550781 34.75 -38.1875 C 33.21875 -38.820312 31.609375 -39.140625 29.921875 -39.140625 C 28.273438 -39.140625 26.691406 -38.820312 25.171875 -38.1875 C 23.648438 -37.550781 22.328125 -36.671875 21.203125 -35.546875 C 20.035156 -34.378906 19.125 -33.046875 18.46875 -31.546875 C 17.8125 -30.046875 17.484375 -28.453125 17.484375 -26.765625 C 17.484375 -25.078125 17.8125 -23.484375 18.46875 -21.984375 C 19.125 -20.484375 20.035156 -19.15625 21.203125 -18 C 22.328125 -16.875 23.648438 -15.992188 25.171875 -15.359375 C 26.691406 -14.722656 28.273438 -14.40625 29.921875 -14.40625 Z M 29.921875 -14.40625 "/></g></g></g><g fill="#c5e2ff" fill-opacity="1"><g transform="translate(469.912868, 109.765475)"><g><path d="M 12.65625 0 C 10.519531 0 8.738281 -0.710938 7.3125 -2.140625 C 6.601562 -2.816406 6.039062 -3.601562 5.625 -4.5 C 5.207031 -5.394531 5 -6.351562 5 -7.375 L 5 -26.265625 C 5.113281 -30.015625 5.929688 -33.585938 7.453125 -36.984375 C 8.972656 -40.378906 11.046875 -43.367188 13.671875 -45.953125 C 16.253906 -48.503906 19.242188 -50.507812 22.640625 -51.96875 C 26.035156 -53.425781 29.625 -54.195312 33.40625 -54.28125 L 33.859375 -54.28125 C 36.296875 -54.28125 38.195312 -53.59375 39.5625 -52.21875 C 40.9375 -50.851562 41.625 -49.0625 41.625 -46.84375 C 41.625 -44.78125 40.875 -43.003906 39.375 -41.515625 C 37.875 -40.085938 36.035156 -39.375 33.859375 -39.375 L 33.515625 -39.375 C 31.679688 -39.332031 29.957031 -38.953125 28.34375 -38.234375 C 26.726562 -37.523438 25.304688 -36.535156 24.078125 -35.265625 C 22.796875 -33.992188 21.796875 -32.53125 21.078125 -30.875 C 20.367188 -29.226562 20 -27.484375 19.96875 -25.640625 L 19.96875 -7.375 C 19.96875 -5.226562 19.253906 -3.484375 17.828125 -2.140625 C 16.398438 -0.710938 14.675781 0 12.65625 0 Z M 12.65625 0 "/></g></g></g><g fill="#c5e2ff" fill-opacity="1"><g transform="translate(508.623254, 109.765475)"><g><path d="M 32.453125 0.671875 C 28.742188 0.671875 25.207031 -0.0351562 21.84375 -1.453125 C 18.488281 -2.878906 15.554688 -4.851562 13.046875 -7.375 C 10.535156 -9.882812 8.566406 -12.816406 7.140625 -16.171875 C 5.710938 -19.523438 5 -23.054688 5 -26.765625 L 5 -63.15625 C 5 -65.257812 5.75 -67.0625 7.25 -68.5625 C 7.925781 -69.238281 8.722656 -69.769531 9.640625 -70.15625 C 10.566406 -70.550781 11.535156 -70.75 12.546875 -70.75 C 13.554688 -70.75 14.535156 -70.550781 15.484375 -70.15625 C 16.441406 -69.769531 17.28125 -69.238281 18 -68.5625 C 18.707031 -67.851562 19.273438 -67.03125 19.703125 -66.09375 C 20.140625 -65.15625 20.359375 -64.175781 20.359375 -63.15625 L 20.359375 -55.96875 L 37.625 -55.96875 C 38.632812 -55.96875 39.597656 -55.769531 40.515625 -55.375 C 41.441406 -54.976562 42.257812 -54.441406 42.96875 -53.765625 C 43.644531 -53.054688 44.175781 -52.238281 44.5625 -51.3125 C 44.957031 -50.394531 45.15625 -49.429688 45.15625 -48.421875 C 45.15625 -46.472656 44.425781 -44.785156 42.96875 -43.359375 C 41.46875 -41.941406 39.6875 -41.234375 37.625 -41.234375 L 20.359375 -41.234375 L 20.359375 -26.65625 C 20.359375 -23.132812 21.519531 -20.210938 23.84375 -17.890625 C 26.164062 -15.484375 29.035156 -14.28125 32.453125 -14.28125 C 35.679688 -14.28125 38.269531 -15.160156 40.21875 -16.921875 C 42.019531 -18.609375 43.910156 -19.453125 45.890625 -19.453125 C 46.710938 -19.453125 47.546875 -19.273438 48.390625 -18.921875 C 49.234375 -18.566406 49.957031 -18.070312 50.5625 -17.4375 C 51.945312 -16.007812 52.640625 -14.359375 52.640625 -12.484375 C 52.640625 -11.328125 52.40625 -10.1875 51.9375 -9.0625 C 51.46875 -7.9375 50.800781 -6.941406 49.9375 -6.078125 C 47.613281 -3.828125 44.972656 -2.140625 42.015625 -1.015625 C 39.054688 0.109375 35.867188 0.671875 32.453125 0.671875 Z M 32.453125 0.671875 "/></g></g></g></svg>